<svg xmlns="http://www.w3.org/2000/svg" version="1.1" xmlns:xlink="http://www.w3.org/1999/xlink" xmlns:svgjs="http://svgjs.dev/svgjs" width="1500" height="939" viewBox="0 0 1500 939"><g transform="matrix(1,0,0,1,-0.9090909090909918,-1.514516129032188)"><svg viewBox="0 0 396 248" data-background-color="#000000" preserveAspectRatio="xMidYMid meet" height="939" width="1500" xmlns="http://www.w3.org/2000/svg" xmlns:xlink="http://www.w3.org/1999/xlink"><g id="tight-bounds" transform="matrix(1,0,0,1,0.2400000000000091,0.4000000000000057)"><svg viewBox="0 0 395.52 247.2" height="247.2" width="395.52"><rect width="395.52" height="247.20000000000005" fill="url(#4ffcdaae-7dd0-482c-84de-5fdf892c60d5)" mask="url(#4e8d7711-6bce-4440-9edb-daed884ad8db)" data-fill-palette-color="tertiary"></rect><g><svg></svg></g><g><svg viewBox="0 0 395.52 247.2" height="247.2" width="395.52"><mask id="8e6bb9b3-af2c-4fb4-9df0-fbe3fbf243ef"><rect width="395.52" height="247.2" fill="white"></rect><g transform="matrix(1,0,0,1,0,48.64330458465729)" id="clone"><svg viewBox="0 0 395.52 149.91339083068542" height="149.91339083068542" width="395.52"><g><svg viewBox="0 0 395.52 149.91339083068542" height="149.91339083068542" width="395.52"><g><svg viewBox="0 0 395.52 149.91339083068542" height="149.91339083068542" width="395.52"><g><svg viewBox="0 0 395.52 149.91339083068542" height="149.91339083068542" width="395.52"><g id="SvgjsG5871"><svg viewBox="0 0 395.52 149.91339083068542" height="149.91339083068542" width="395.52" id="SvgjsSvg5870"><g><svg viewBox="0 0 395.52 149.91339083068542" height="149.91339083068542" width="395.52"><g transform="matrix(1,0,0,1,0,0)"><svg width="395.52" viewBox="-1 -39.2 111.15 42.75" height="149.91339083068542" data-palette-color="url(#1e48f0ea-5568-4a0f-b651-a51fd1e96828)"><path d="M9.4 0L2 0.15 2-1.1 3-1.2Q4.75-1.4 5.68-1.73 6.6-2.05 6.98-3.13 7.35-4.2 7.35-6.65L7.35-6.65 7.35-28.85Q7.35-31.35 7-32.4 6.65-33.45 5.73-33.77 4.8-34.1 3.05-34.3L3.05-34.3 2.05-34.4 2.05-35.65 9.45-35.5 16.5-35.5Q23.25-35.5 27.93-33.7 32.6-31.9 35.05-28.03 37.5-24.15 37.5-17.9L37.5-17.9Q37.5-13.45 36-10.1 34.5-6.75 31.9-4.5 29.3-2.25 25.98-1.13 22.65 0 19 0L19 0 9.4 0ZM14.95-1.5L14.95-1.5 19.2-1.5Q25.3-1.5 29-5.48 32.7-9.45 32.7-17.8L32.7-17.8Q32.7-22.9 31.28-26.53 29.85-30.15 26.63-32.08 23.4-34 17.95-34L17.95-34 11.65-34 11.65-7.3Q11.65-5.85 11.85-4.53 12.05-3.2 12.75-2.35 13.45-1.5 14.95-1.5ZM48 0L40.6 0.15 40.6-1.1 41.6-1.2Q43.35-1.4 44.27-1.73 45.2-2.05 45.55-3.13 45.9-4.2 45.9-6.65L45.9-6.65 45.9-28.85Q45.9-31.35 45.55-32.4 45.2-33.45 44.27-33.77 43.35-34.1 41.6-34.3L41.6-34.3 40.6-34.4 40.6-35.65 48-35.5 54.65-35.65 54.65-34.35 53.65-34.25Q52.15-34.1 51.35-33.7 50.55-33.3 50.25-32.2 49.95-31.1 49.95-28.85L49.95-28.85 49.95-15.45 61.45-28.9Q62.5-30.15 62.97-31.05 63.45-31.95 63.45-32.6L63.45-32.6Q63.45-33.95 61.15-34.2L61.15-34.2 59.55-34.35 59.55-35.65 65.95-35.5 72-35.65 72-34.4 70.3-34.2Q68.8-34 67.47-33 66.15-32 64.7-30.3L64.7-30.3 56.9-21.1 66.5-8.55Q68.2-6.35 69.57-4.75 70.95-3.15 72.37-2.27 73.8-1.4 75.6-1.2L75.6-1.2 76.65-1.1 76.65 0.15 69.05 0 61.65 0.15 61.65-1.1 62.4-1.15Q64.8-1.3 64.8-2.6L64.8-2.6Q64.8-3.6 63.45-5.35L63.45-5.35 53.95-17.6 49.95-12.9 49.95-6.65Q49.95-4.2 50.27-3.13 50.6-2.05 51.45-1.73 52.3-1.4 53.9-1.2L53.9-1.2 54.8-1.1 54.8 0.15 48.05 0 48 0ZM94.15 0.55L94.15 0.55Q89.05 0.55 85.37-1.8 81.7-4.15 79.72-8.28 77.75-12.4 77.75-17.75L77.75-17.75Q77.75-21.75 79.05-25.1 80.35-28.45 82.65-30.95 84.95-33.45 87.97-34.83 91-36.2 94.45-36.2L94.45-36.2Q97.5-36.2 99.47-35.52 101.45-34.85 102.45-34.35L102.45-34.35Q103.1-34.05 103.65-33.83 104.2-33.6 104.4-33.6L104.4-33.6Q104.95-33.6 105.3-34.02 105.65-34.45 105.75-35.5L105.75-35.5 107-35.5 106.9-29.65 107-23.8 105.75-23.8Q105-29 102.15-31.85 99.3-34.7 94.6-34.7L94.6-34.7Q91.3-34.7 89.05-33.38 86.8-32.05 85.45-29.73 84.1-27.4 83.47-24.33 82.85-21.25 82.85-17.75L82.85-17.75Q82.85-12.5 83.97-8.75 85.1-5 87.67-2.98 90.25-0.95 94.6-0.95L94.6-0.95Q97.85-0.95 100.25-2.45 102.65-3.95 104.12-6.45 105.6-8.95 105.9-11.95L105.9-11.95 107.1-11.95 107-5.85 107.15 0 105.95 0 105.8-0.55Q105.6-1.2 105.32-1.78 105.05-2.35 104.4-2.35L104.4-2.35Q104.05-2.35 103.57-2.15 103.1-1.95 102.5-1.65L102.5-1.65Q101.2-1 99.1-0.23 97 0.55 94.15 0.55Z" opacity="1" transform="matrix(1,0,0,1,0,0)" fill="black" class="wordmark-text-0" id="SvgjsPath5869" stroke-width="5" stroke="black" stroke-linejoin="round"></path></svg></g></svg></g></svg></g></svg></g><g></g></svg></g></svg></g></svg></g></mask><g mask="url(#8e6bb9b3-af2c-4fb4-9df0-fbe3fbf243ef)"><g><path d="M126.293 246.164l-51.097 1.036v-8.631l6.905-0.691c8.056-0.921 14.224-2.141 18.505-3.659 4.235-1.473 7.227-4.695 8.977-9.667 1.703-4.926 2.555-13.027 2.555-24.306v0-153.292c0-11.508-0.806-19.679-2.417-24.513-1.611-4.834-4.534-7.987-8.77-9.46-4.281-1.519-10.45-2.739-18.505-3.659v0l-6.905-0.691v-8.631l51.097 1.036h48.681c31.073 0 57.381 4.143 78.924 12.429 21.498 8.286 37.886 21.337 49.164 39.151 11.278 17.861 16.917 41.177 16.917 69.948v0c0 20.485-3.453 38.438-10.357 53.859-6.905 15.421-16.342 28.311-28.311 38.669-11.969 10.358-25.595 18.114-40.878 23.27-15.329 5.202-31.395 7.803-48.197 7.802v0zM164.616 235.807v0h29.346c28.08 0 50.637-9.161 67.67-27.482 17.032-18.275 25.549-46.632 25.548-85.07v0c0-23.477-3.268-43.571-9.805-60.281-6.583-16.664-17.286-29.438-32.108-38.323-14.869-8.838-34.847-13.258-59.936-13.258v0h-43.502v184.365c0 6.675 0.46 13.05 1.381 19.126 0.921 6.122 2.992 11.14 6.215 15.053 3.222 3.913 8.286 5.869 15.191 5.87z" fill="url(#4ffcdaae-7dd0-482c-84de-5fdf892c60d5)" fill-rule="nonzero" stroke="none" stroke-width="1" stroke-linecap="butt" stroke-linejoin="miter" stroke-miterlimit="10" stroke-dasharray="" stroke-dashoffset="0" font-family="none" font-weight="none" font-size="none" text-anchor="none" style="mix-blend-mode: normal" data-fill-palette-color="tertiary"></path></g></g><g transform="matrix(1,0,0,1,0,48.64330458465729)"><svg viewBox="0 0 395.52 149.91339083068542" height="149.91339083068542" width="395.52"><g><svg viewBox="0 0 395.52 149.91339083068542" height="149.91339083068542" width="395.52"><g><svg viewBox="0 0 395.52 149.91339083068542" height="149.91339083068542" width="395.52"><g><svg viewBox="0 0 395.52 149.91339083068542" height="149.91339083068542" width="395.52"><g id="textblocktransform"><svg viewBox="0 0 395.52 149.91339083068542" height="149.91339083068542" width="395.52" id="textblock"><g><svg viewBox="0 0 395.52 149.91339083068542" height="149.91339083068542" width="395.52"><g transform="matrix(1,0,0,1,0,0)"><svg width="395.52" viewBox="-1 -39.2 111.15 42.75" height="149.91339083068542" data-palette-color="url(#1e48f0ea-5568-4a0f-b651-a51fd1e96828)"></svg></g></svg></g></svg></g></svg></g><g></g></svg></g></svg></g></svg></g></svg></g><defs></defs><mask id="052ff21c-2380-4028-a808-c036013fa7d8"><g id="SvgjsG5881"><svg viewBox="0 0 395.52 247.2" height="247.2" width="395.52"><g><svg></svg></g><g><svg viewBox="0 0 395.52 247.2" height="247.2" width="395.52"><mask id="SvgjsMask5880"><rect width="395.52" height="247.2" fill="black"></rect><g transform="matrix(1,0,0,1,0,48.64330458465729)" id="SvgjsG5879"><svg viewBox="0 0 395.52 149.91339083068542" height="149.91339083068542" width="395.52"><g><svg viewBox="0 0 395.52 149.91339083068542" height="149.91339083068542" width="395.52"><g><svg viewBox="0 0 395.52 149.91339083068542" height="149.91339083068542" width="395.52"><g><svg viewBox="0 0 395.52 149.91339083068542" height="149.91339083068542" width="395.52"><g id="SvgjsG5878"><svg viewBox="0 0 395.52 149.91339083068542" height="149.91339083068542" width="395.52" id="SvgjsSvg5877"><g><svg viewBox="0 0 395.52 149.91339083068542" height="149.91339083068542" width="395.52"><g transform="matrix(1,0,0,1,0,0)"><svg width="395.52" viewBox="-1 -39.2 111.15 42.75" height="149.91339083068542" data-palette-color="url(#1e48f0ea-5568-4a0f-b651-a51fd1e96828)"><path d="M9.4 0L2 0.15 2-1.1 3-1.2Q4.75-1.4 5.68-1.73 6.6-2.05 6.98-3.13 7.35-4.2 7.35-6.65L7.35-6.65 7.35-28.85Q7.35-31.35 7-32.4 6.65-33.45 5.73-33.77 4.8-34.1 3.05-34.3L3.05-34.3 2.05-34.4 2.05-35.65 9.45-35.5 16.5-35.5Q23.25-35.5 27.93-33.7 32.6-31.9 35.05-28.03 37.5-24.15 37.5-17.9L37.5-17.9Q37.5-13.45 36-10.1 34.5-6.75 31.9-4.5 29.3-2.25 25.98-1.13 22.65 0 19 0L19 0 9.4 0ZM14.95-1.5L14.95-1.5 19.2-1.5Q25.3-1.5 29-5.48 32.7-9.45 32.7-17.8L32.7-17.8Q32.7-22.9 31.28-26.53 29.85-30.15 26.63-32.08 23.4-34 17.95-34L17.95-34 11.65-34 11.65-7.3Q11.65-5.85 11.85-4.53 12.05-3.2 12.75-2.35 13.45-1.5 14.95-1.5ZM48 0L40.6 0.15 40.6-1.1 41.6-1.2Q43.35-1.4 44.27-1.73 45.2-2.05 45.55-3.13 45.9-4.2 45.9-6.65L45.9-6.65 45.9-28.85Q45.9-31.35 45.55-32.4 45.2-33.45 44.27-33.77 43.35-34.1 41.6-34.3L41.6-34.3 40.6-34.4 40.6-35.65 48-35.5 54.65-35.65 54.65-34.35 53.65-34.25Q52.15-34.1 51.35-33.7 50.55-33.3 50.25-32.2 49.95-31.1 49.95-28.85L49.95-28.85 49.95-15.45 61.45-28.9Q62.5-30.15 62.97-31.05 63.45-31.95 63.45-32.6L63.45-32.6Q63.45-33.95 61.15-34.2L61.15-34.2 59.55-34.35 59.55-35.65 65.95-35.5 72-35.65 72-34.4 70.3-34.2Q68.8-34 67.47-33 66.15-32 64.7-30.3L64.7-30.3 56.9-21.1 66.5-8.55Q68.2-6.35 69.57-4.75 70.95-3.15 72.37-2.27 73.8-1.4 75.6-1.2L75.6-1.2 76.65-1.1 76.65 0.15 69.05 0 61.65 0.15 61.65-1.1 62.4-1.15Q64.8-1.3 64.8-2.6L64.8-2.6Q64.8-3.6 63.45-5.35L63.45-5.35 53.95-17.6 49.95-12.9 49.95-6.65Q49.95-4.2 50.27-3.13 50.6-2.05 51.45-1.73 52.3-1.4 53.9-1.2L53.9-1.2 54.8-1.1 54.8 0.15 48.05 0 48 0ZM94.15 0.55L94.15 0.55Q89.05 0.55 85.37-1.8 81.7-4.15 79.72-8.28 77.75-12.4 77.75-17.75L77.75-17.75Q77.75-21.75 79.05-25.1 80.35-28.45 82.65-30.95 84.95-33.45 87.97-34.83 91-36.2 94.45-36.2L94.45-36.2Q97.5-36.2 99.47-35.52 101.45-34.85 102.45-34.35L102.45-34.35Q103.1-34.05 103.65-33.83 104.2-33.6 104.4-33.6L104.4-33.6Q104.95-33.6 105.3-34.02 105.65-34.45 105.75-35.5L105.75-35.5 107-35.5 106.9-29.65 107-23.8 105.75-23.8Q105-29 102.15-31.85 99.3-34.7 94.6-34.7L94.6-34.7Q91.3-34.7 89.05-33.38 86.8-32.05 85.45-29.73 84.1-27.4 83.47-24.33 82.85-21.25 82.85-17.75L82.85-17.75Q82.85-12.5 83.97-8.75 85.1-5 87.67-2.98 90.25-0.95 94.6-0.95L94.6-0.95Q97.85-0.95 100.25-2.45 102.65-3.95 104.12-6.45 105.6-8.95 105.9-11.95L105.9-11.95 107.1-11.95 107-5.85 107.15 0 105.95 0 105.8-0.55Q105.6-1.2 105.32-1.78 105.05-2.35 104.4-2.35L104.4-2.35Q104.05-2.35 103.57-2.15 103.1-1.95 102.5-1.65L102.5-1.65Q101.2-1 99.1-0.23 97 0.55 94.15 0.55Z" opacity="1" transform="matrix(1,0,0,1,0,0)" fill="black" class="wordmark-text-0" id="SvgjsPath5876" stroke-width="5" stroke="black" stroke-linejoin="round"></path></svg></g></svg></g></svg></g></svg></g><g></g></svg></g></svg></g></svg></g></mask><g mask="url(#8e6bb9b3-af2c-4fb4-9df0-fbe3fbf243ef)"><g><path d="M126.293 246.164l-51.097 1.036v-8.631l6.905-0.691c8.056-0.921 14.224-2.141 18.505-3.659 4.235-1.473 7.227-4.695 8.977-9.667 1.703-4.926 2.555-13.027 2.555-24.306v0-153.292c0-11.508-0.806-19.679-2.417-24.513-1.611-4.834-4.534-7.987-8.77-9.46-4.281-1.519-10.45-2.739-18.505-3.659v0l-6.905-0.691v-8.631l51.097 1.036h48.681c31.073 0 57.381 4.143 78.924 12.429 21.498 8.286 37.886 21.337 49.164 39.151 11.278 17.861 16.917 41.177 16.917 69.948v0c0 20.485-3.453 38.438-10.357 53.859-6.905 15.421-16.342 28.311-28.311 38.669-11.969 10.358-25.595 18.114-40.878 23.27-15.329 5.202-31.395 7.803-48.197 7.802v0zM164.616 235.807v0h29.346c28.08 0 50.637-9.161 67.67-27.482 17.032-18.275 25.549-46.632 25.548-85.07v0c0-23.477-3.268-43.571-9.805-60.281-6.583-16.664-17.286-29.438-32.108-38.323-14.869-8.838-34.847-13.258-59.936-13.258v0h-43.502v184.365c0 6.675 0.46 13.05 1.381 19.126 0.921 6.122 2.992 11.14 6.215 15.053 3.222 3.913 8.286 5.869 15.191 5.87z" fill="black" fill-rule="nonzero" stroke="none" stroke-width="1" stroke-linecap="butt" stroke-linejoin="miter" stroke-miterlimit="10" stroke-dasharray="" stroke-dashoffset="0" font-family="none" font-weight="none" font-size="none" text-anchor="none" style="mix-blend-mode: normal"></path></g></g><g transform="matrix(1,0,0,1,0,48.64330458465729)"><svg viewBox="0 0 395.52 149.91339083068542" height="149.91339083068542" width="395.52"><g><svg viewBox="0 0 395.52 149.91339083068542" height="149.91339083068542" width="395.52"><g><svg viewBox="0 0 395.52 149.91339083068542" height="149.91339083068542" width="395.52"><g><svg viewBox="0 0 395.52 149.91339083068542" height="149.91339083068542" width="395.52"><g id="SvgjsG5875"><svg viewBox="0 0 395.52 149.91339083068542" height="149.91339083068542" width="395.52" id="SvgjsSvg5874"><g><svg viewBox="0 0 395.52 149.91339083068542" height="149.91339083068542" width="395.52"><g transform="matrix(1,0,0,1,0,0)"><svg width="395.52" viewBox="-1 -39.2 111.15 42.75" height="149.91339083068542" data-palette-color="url(#1e48f0ea-5568-4a0f-b651-a51fd1e96828)"><path d="M9.4 0L2 0.15 2-1.1 3-1.2Q4.75-1.4 5.68-1.73 6.6-2.05 6.98-3.13 7.35-4.2 7.35-6.65L7.35-6.65 7.35-28.85Q7.35-31.35 7-32.4 6.65-33.45 5.73-33.77 4.8-34.1 3.05-34.3L3.05-34.3 2.05-34.4 2.05-35.65 9.45-35.5 16.5-35.5Q23.25-35.5 27.93-33.7 32.6-31.9 35.05-28.03 37.5-24.15 37.5-17.9L37.5-17.9Q37.5-13.45 36-10.1 34.5-6.75 31.9-4.5 29.3-2.25 25.98-1.13 22.65 0 19 0L19 0 9.4 0ZM14.95-1.5L14.95-1.5 19.2-1.5Q25.3-1.5 29-5.48 32.7-9.45 32.7-17.8L32.7-17.8Q32.7-22.9 31.28-26.53 29.85-30.15 26.63-32.08 23.4-34 17.95-34L17.95-34 11.65-34 11.65-7.3Q11.65-5.85 11.85-4.53 12.05-3.2 12.75-2.35 13.45-1.5 14.95-1.5ZM48 0L40.6 0.15 40.6-1.1 41.6-1.2Q43.35-1.4 44.27-1.73 45.2-2.05 45.55-3.13 45.9-4.2 45.9-6.65L45.9-6.65 45.9-28.85Q45.9-31.35 45.55-32.4 45.2-33.45 44.27-33.77 43.35-34.1 41.6-34.3L41.6-34.3 40.6-34.4 40.6-35.65 48-35.5 54.65-35.65 54.65-34.35 53.65-34.25Q52.15-34.1 51.35-33.7 50.55-33.3 50.25-32.2 49.95-31.1 49.95-28.85L49.95-28.85 49.95-15.45 61.45-28.9Q62.5-30.15 62.97-31.05 63.45-31.95 63.45-32.6L63.45-32.6Q63.45-33.95 61.15-34.2L61.15-34.2 59.55-34.35 59.55-35.65 65.95-35.5 72-35.65 72-34.4 70.3-34.2Q68.8-34 67.47-33 66.15-32 64.7-30.3L64.7-30.3 56.9-21.1 66.5-8.55Q68.2-6.35 69.57-4.75 70.95-3.15 72.37-2.27 73.8-1.4 75.6-1.2L75.6-1.2 76.65-1.1 76.65 0.15 69.05 0 61.65 0.15 61.65-1.1 62.4-1.15Q64.8-1.3 64.8-2.6L64.8-2.6Q64.8-3.6 63.45-5.35L63.45-5.35 53.95-17.6 49.95-12.9 49.95-6.65Q49.95-4.2 50.27-3.13 50.6-2.05 51.45-1.73 52.3-1.4 53.9-1.2L53.9-1.2 54.8-1.1 54.8 0.15 48.05 0 48 0ZM94.15 0.55L94.15 0.55Q89.05 0.55 85.37-1.8 81.7-4.15 79.72-8.28 77.75-12.4 77.75-17.75L77.75-17.75Q77.75-21.75 79.05-25.1 80.35-28.45 82.65-30.95 84.95-33.45 87.97-34.83 91-36.2 94.45-36.2L94.45-36.2Q97.5-36.2 99.47-35.52 101.45-34.85 102.45-34.35L102.45-34.35Q103.1-34.05 103.65-33.83 104.2-33.6 104.4-33.6L104.4-33.6Q104.95-33.6 105.3-34.02 105.65-34.45 105.75-35.5L105.75-35.5 107-35.5 106.9-29.65 107-23.8 105.75-23.8Q105-29 102.15-31.85 99.3-34.7 94.6-34.7L94.6-34.7Q91.3-34.7 89.05-33.38 86.8-32.05 85.45-29.73 84.1-27.4 83.47-24.33 82.85-21.25 82.85-17.75L82.85-17.75Q82.85-12.5 83.97-8.75 85.1-5 87.67-2.98 90.25-0.95 94.6-0.95L94.6-0.95Q97.85-0.95 100.25-2.45 102.65-3.95 104.12-6.45 105.6-8.95 105.9-11.95L105.9-11.95 107.1-11.95 107-5.85 107.15 0 105.95 0 105.8-0.55Q105.6-1.2 105.32-1.78 105.05-2.35 104.4-2.35L104.4-2.35Q104.05-2.35 103.57-2.15 103.1-1.95 102.5-1.65L102.5-1.65Q101.2-1 99.1-0.23 97 0.55 94.15 0.55Z" opacity="1" transform="matrix(1,0,0,1,0,0)" fill="white" class="wordmark-text-0" id="SvgjsPath5873"></path></svg></g></svg></g></svg></g></svg></g><g></g></svg></g></svg></g></svg></g></svg></g><defs><mask></mask></defs></svg><rect width="395.52" height="247.2" fill="black" stroke="none" visibility="hidden"></rect></g></mask><linearGradient x1="0" x2="1" y1="0.578" y2="0.595" id="1e48f0ea-5568-4a0f-b651-a51fd1e96828"><stop stop-color="#6ee2f5" offset="0"></stop><stop stop-color="#6454f0" offset="1"></stop></linearGradient><rect width="395.52" height="247.20000000000002" fill="url(#1e48f0ea-5568-4a0f-b651-a51fd1e96828)" mask="url(#052ff21c-2380-4028-a808-c036013fa7d8)" data-fill-palette-color="primary"></rect><mask id="4e8d7711-6bce-4440-9edb-daed884ad8db"><g id="SvgjsG5934"><svg viewBox="0 0 395.52 247.2" height="247.2" width="395.52"><g><svg></svg></g><g><svg viewBox="0 0 395.52 247.2" height="247.2" width="395.52"><mask id="SvgjsMask5933"><rect width="395.52" height="247.2" fill="black"></rect><g transform="matrix(1,0,0,1,0,48.64330458465729)" id="SvgjsG5932"><svg viewBox="0 0 395.52 149.91339083068542" height="149.91339083068542" width="395.52"><g><svg viewBox="0 0 395.52 149.91339083068542" height="149.91339083068542" width="395.52"><g><svg viewBox="0 0 395.52 149.91339083068542" height="149.91339083068542" width="395.52"><g><svg viewBox="0 0 395.52 149.91339083068542" height="149.91339083068542" width="395.52"><g id="SvgjsG5931"><svg viewBox="0 0 395.52 149.91339083068542" height="149.91339083068542" width="395.52" id="SvgjsSvg5930"><g><svg viewBox="0 0 395.52 149.91339083068542" height="149.91339083068542" width="395.52"><g transform="matrix(1,0,0,1,0,0)"><svg width="395.52" viewBox="-1 -39.2 111.15 42.75" height="149.91339083068542" data-palette-color="url(#1e48f0ea-5568-4a0f-b651-a51fd1e96828)"><path d="M9.4 0L2 0.15 2-1.1 3-1.2Q4.75-1.4 5.68-1.73 6.6-2.05 6.98-3.13 7.35-4.2 7.35-6.65L7.35-6.65 7.35-28.85Q7.35-31.35 7-32.4 6.65-33.45 5.73-33.77 4.8-34.1 3.05-34.3L3.05-34.3 2.05-34.4 2.05-35.65 9.45-35.5 16.5-35.5Q23.25-35.5 27.93-33.7 32.6-31.9 35.05-28.03 37.5-24.15 37.5-17.9L37.5-17.9Q37.5-13.45 36-10.1 34.5-6.75 31.9-4.5 29.3-2.25 25.98-1.13 22.65 0 19 0L19 0 9.4 0ZM14.95-1.5L14.95-1.5 19.2-1.5Q25.3-1.5 29-5.48 32.7-9.45 32.7-17.8L32.7-17.8Q32.7-22.9 31.28-26.53 29.85-30.15 26.63-32.08 23.4-34 17.95-34L17.95-34 11.65-34 11.65-7.3Q11.65-5.85 11.85-4.53 12.05-3.2 12.75-2.35 13.45-1.5 14.95-1.5ZM48 0L40.6 0.15 40.6-1.1 41.6-1.2Q43.35-1.4 44.27-1.73 45.2-2.05 45.55-3.13 45.9-4.2 45.9-6.65L45.9-6.65 45.9-28.85Q45.9-31.35 45.55-32.4 45.2-33.45 44.27-33.77 43.35-34.1 41.6-34.3L41.6-34.3 40.6-34.4 40.6-35.65 48-35.5 54.65-35.65 54.65-34.35 53.65-34.25Q52.15-34.1 51.35-33.7 50.55-33.3 50.25-32.2 49.95-31.1 49.95-28.85L49.95-28.85 49.95-15.45 61.45-28.9Q62.5-30.15 62.97-31.05 63.45-31.95 63.45-32.6L63.45-32.6Q63.45-33.95 61.15-34.2L61.15-34.2 59.55-34.35 59.55-35.65 65.95-35.5 72-35.65 72-34.4 70.3-34.2Q68.8-34 67.47-33 66.15-32 64.7-30.3L64.7-30.3 56.9-21.1 66.5-8.55Q68.2-6.35 69.57-4.75 70.95-3.15 72.37-2.27 73.8-1.4 75.6-1.2L75.6-1.2 76.65-1.1 76.65 0.15 69.05 0 61.65 0.15 61.65-1.1 62.4-1.15Q64.8-1.3 64.8-2.6L64.8-2.6Q64.8-3.6 63.45-5.35L63.45-5.35 53.95-17.6 49.95-12.9 49.95-6.65Q49.95-4.2 50.27-3.13 50.6-2.05 51.45-1.73 52.3-1.4 53.9-1.2L53.9-1.2 54.8-1.1 54.8 0.15 48.05 0 48 0ZM94.15 0.55L94.15 0.55Q89.05 0.55 85.37-1.8 81.7-4.15 79.72-8.28 77.75-12.4 77.75-17.75L77.75-17.75Q77.75-21.75 79.05-25.1 80.35-28.45 82.65-30.95 84.95-33.45 87.97-34.83 91-36.2 94.45-36.2L94.45-36.2Q97.5-36.2 99.47-35.52 101.45-34.85 102.45-34.35L102.45-34.35Q103.1-34.05 103.65-33.83 104.2-33.6 104.4-33.6L104.4-33.6Q104.95-33.6 105.3-34.02 105.65-34.45 105.75-35.5L105.75-35.5 107-35.5 106.9-29.65 107-23.8 105.75-23.8Q105-29 102.15-31.85 99.3-34.7 94.6-34.7L94.6-34.7Q91.3-34.7 89.05-33.38 86.8-32.05 85.45-29.73 84.1-27.4 83.47-24.33 82.85-21.25 82.85-17.75L82.85-17.75Q82.85-12.5 83.97-8.75 85.1-5 87.67-2.98 90.25-0.95 94.6-0.95L94.6-0.95Q97.85-0.95 100.25-2.45 102.65-3.95 104.12-6.45 105.6-8.95 105.9-11.95L105.9-11.95 107.1-11.95 107-5.85 107.15 0 105.95 0 105.8-0.55Q105.6-1.2 105.32-1.78 105.05-2.35 104.4-2.35L104.4-2.35Q104.05-2.35 103.57-2.15 103.1-1.95 102.5-1.65L102.5-1.65Q101.2-1 99.1-0.23 97 0.55 94.15 0.55Z" opacity="1" transform="matrix(1,0,0,1,0,0)" fill="black" class="wordmark-text-0" id="SvgjsPath5929" stroke-width="5" stroke="black" stroke-linejoin="round"></path></svg></g></svg></g></svg></g></svg></g><g></g></svg></g></svg></g></svg></g></mask><g mask="url(#8e6bb9b3-af2c-4fb4-9df0-fbe3fbf243ef)"><g><path d="M126.293 246.164l-51.097 1.036v-8.631l6.905-0.691c8.056-0.921 14.224-2.141 18.505-3.659 4.235-1.473 7.227-4.695 8.977-9.667 1.703-4.926 2.555-13.027 2.555-24.306v0-153.292c0-11.508-0.806-19.679-2.417-24.513-1.611-4.834-4.534-7.987-8.77-9.46-4.281-1.519-10.45-2.739-18.505-3.659v0l-6.905-0.691v-8.631l51.097 1.036h48.681c31.073 0 57.381 4.143 78.924 12.429 21.498 8.286 37.886 21.337 49.164 39.151 11.278 17.861 16.917 41.177 16.917 69.948v0c0 20.485-3.453 38.438-10.357 53.859-6.905 15.421-16.342 28.311-28.311 38.669-11.969 10.358-25.595 18.114-40.878 23.27-15.329 5.202-31.395 7.803-48.197 7.802v0zM164.616 235.807v0h29.346c28.08 0 50.637-9.161 67.67-27.482 17.032-18.275 25.549-46.632 25.548-85.07v0c0-23.477-3.268-43.571-9.805-60.281-6.583-16.664-17.286-29.438-32.108-38.323-14.869-8.838-34.847-13.258-59.936-13.258v0h-43.502v184.365c0 6.675 0.46 13.05 1.381 19.126 0.921 6.122 2.992 11.14 6.215 15.053 3.222 3.913 8.286 5.869 15.191 5.87z" fill="white" fill-rule="nonzero" stroke="none" stroke-width="1" stroke-linecap="butt" stroke-linejoin="miter" stroke-miterlimit="10" stroke-dasharray="" stroke-dashoffset="0" font-family="none" font-weight="none" font-size="none" text-anchor="none" style="mix-blend-mode: normal"></path></g></g><g transform="matrix(1,0,0,1,0,48.64330458465729)"><svg viewBox="0 0 395.52 149.91339083068542" height="149.91339083068542" width="395.52"><g><svg viewBox="0 0 395.52 149.91339083068542" height="149.91339083068542" width="395.52"><g><svg viewBox="0 0 395.52 149.91339083068542" height="149.91339083068542" width="395.52"><g><svg viewBox="0 0 395.52 149.91339083068542" height="149.91339083068542" width="395.52"><g id="SvgjsG5928"><svg viewBox="0 0 395.52 149.91339083068542" height="149.91339083068542" width="395.52" id="SvgjsSvg5927"><g><svg viewBox="0 0 395.52 149.91339083068542" height="149.91339083068542" width="395.52"><g transform="matrix(1,0,0,1,0,0)"><svg width="395.52" viewBox="-1 -39.2 111.15 42.75" height="149.91339083068542" data-palette-color="url(#1e48f0ea-5568-4a0f-b651-a51fd1e96828)"></svg></g></svg></g></svg></g></svg></g><g></g></svg></g></svg></g></svg></g></svg></g><defs><mask></mask></defs><mask><g id="SvgjsG5926"><svg viewBox="0 0 395.52 247.2" height="247.2" width="395.52"><g><svg></svg></g><g><svg viewBox="0 0 395.52 247.2" height="247.2" width="395.52"><mask id="SvgjsMask5925"><rect width="395.52" height="247.2" fill="black"></rect><g transform="matrix(1,0,0,1,0,48.64330458465729)" id="SvgjsG5924"><svg viewBox="0 0 395.52 149.91339083068542" height="149.91339083068542" width="395.52"><g><svg viewBox="0 0 395.52 149.91339083068542" height="149.91339083068542" width="395.52"><g><svg viewBox="0 0 395.52 149.91339083068542" height="149.91339083068542" width="395.52"><g><svg viewBox="0 0 395.52 149.91339083068542" height="149.91339083068542" width="395.52"><g id="SvgjsG5923"><svg viewBox="0 0 395.52 149.91339083068542" height="149.91339083068542" width="395.52" id="SvgjsSvg5922"><g><svg viewBox="0 0 395.52 149.91339083068542" height="149.91339083068542" width="395.52"><g transform="matrix(1,0,0,1,0,0)"><svg width="395.52" viewBox="-1 -39.2 111.15 42.75" height="149.91339083068542" data-palette-color="url(#1e48f0ea-5568-4a0f-b651-a51fd1e96828)"><path d="M9.4 0L2 0.15 2-1.1 3-1.2Q4.75-1.4 5.68-1.73 6.6-2.05 6.98-3.13 7.35-4.2 7.35-6.65L7.35-6.65 7.35-28.85Q7.35-31.35 7-32.4 6.65-33.45 5.73-33.77 4.8-34.1 3.05-34.3L3.05-34.3 2.05-34.4 2.05-35.65 9.45-35.5 16.5-35.5Q23.25-35.5 27.93-33.7 32.6-31.9 35.05-28.03 37.5-24.15 37.5-17.9L37.5-17.9Q37.5-13.45 36-10.1 34.5-6.75 31.9-4.5 29.3-2.25 25.98-1.13 22.65 0 19 0L19 0 9.4 0ZM14.95-1.5L14.95-1.5 19.2-1.5Q25.3-1.5 29-5.48 32.7-9.45 32.7-17.8L32.7-17.8Q32.7-22.9 31.28-26.53 29.85-30.15 26.63-32.08 23.4-34 17.95-34L17.95-34 11.65-34 11.65-7.3Q11.65-5.85 11.85-4.53 12.05-3.2 12.75-2.35 13.45-1.5 14.95-1.5ZM48 0L40.6 0.15 40.6-1.1 41.6-1.2Q43.35-1.4 44.27-1.73 45.2-2.05 45.55-3.13 45.9-4.2 45.9-6.65L45.9-6.65 45.9-28.85Q45.9-31.35 45.55-32.4 45.2-33.45 44.27-33.77 43.35-34.1 41.6-34.3L41.6-34.3 40.6-34.4 40.6-35.65 48-35.5 54.65-35.65 54.65-34.35 53.65-34.25Q52.15-34.1 51.35-33.7 50.55-33.3 50.25-32.2 49.95-31.1 49.95-28.85L49.95-28.85 49.95-15.45 61.45-28.9Q62.5-30.15 62.97-31.05 63.45-31.95 63.45-32.6L63.45-32.6Q63.45-33.95 61.15-34.2L61.15-34.2 59.55-34.35 59.55-35.65 65.95-35.5 72-35.65 72-34.4 70.3-34.2Q68.8-34 67.47-33 66.15-32 64.7-30.3L64.7-30.3 56.9-21.1 66.5-8.55Q68.2-6.35 69.57-4.75 70.95-3.15 72.37-2.27 73.8-1.4 75.6-1.2L75.6-1.2 76.65-1.1 76.65 0.15 69.05 0 61.65 0.15 61.65-1.1 62.4-1.15Q64.8-1.3 64.8-2.6L64.8-2.6Q64.8-3.6 63.45-5.35L63.45-5.35 53.95-17.6 49.95-12.9 49.95-6.65Q49.95-4.2 50.27-3.13 50.6-2.05 51.45-1.73 52.3-1.4 53.9-1.2L53.9-1.2 54.8-1.1 54.8 0.15 48.05 0 48 0ZM94.15 0.55L94.15 0.55Q89.05 0.55 85.37-1.8 81.7-4.15 79.72-8.28 77.75-12.4 77.75-17.75L77.75-17.75Q77.75-21.75 79.05-25.1 80.35-28.45 82.65-30.95 84.95-33.45 87.97-34.83 91-36.2 94.45-36.2L94.45-36.2Q97.5-36.2 99.47-35.52 101.45-34.85 102.45-34.35L102.45-34.35Q103.1-34.05 103.65-33.83 104.2-33.6 104.4-33.6L104.4-33.6Q104.95-33.6 105.3-34.02 105.65-34.45 105.75-35.5L105.75-35.5 107-35.5 106.9-29.65 107-23.8 105.75-23.8Q105-29 102.15-31.85 99.3-34.7 94.6-34.7L94.6-34.7Q91.3-34.7 89.05-33.38 86.8-32.05 85.45-29.73 84.1-27.4 83.47-24.33 82.85-21.25 82.85-17.75L82.85-17.75Q82.85-12.5 83.97-8.75 85.1-5 87.67-2.98 90.25-0.95 94.6-0.95L94.6-0.95Q97.85-0.95 100.25-2.45 102.65-3.95 104.12-6.45 105.6-8.95 105.9-11.95L105.9-11.95 107.1-11.95 107-5.85 107.15 0 105.95 0 105.8-0.55Q105.6-1.2 105.32-1.78 105.05-2.35 104.4-2.35L104.4-2.35Q104.05-2.35 103.57-2.15 103.1-1.95 102.5-1.65L102.5-1.65Q101.2-1 99.1-0.23 97 0.55 94.15 0.55Z" opacity="1" transform="matrix(1,0,0,1,0,0)" fill="black" class="wordmark-text-0" id="SvgjsPath5921" stroke-width="5" stroke="black" stroke-linejoin="round"></path></svg></g></svg></g></svg></g></svg></g><g></g></svg></g></svg></g></svg></g></mask><g mask="url(#8e6bb9b3-af2c-4fb4-9df0-fbe3fbf243ef)"><g><path d="M126.293 246.164l-51.097 1.036v-8.631l6.905-0.691c8.056-0.921 14.224-2.141 18.505-3.659 4.235-1.473 7.227-4.695 8.977-9.667 1.703-4.926 2.555-13.027 2.555-24.306v0-153.292c0-11.508-0.806-19.679-2.417-24.513-1.611-4.834-4.534-7.987-8.77-9.46-4.281-1.519-10.45-2.739-18.505-3.659v0l-6.905-0.691v-8.631l51.097 1.036h48.681c31.073 0 57.381 4.143 78.924 12.429 21.498 8.286 37.886 21.337 49.164 39.151 11.278 17.861 16.917 41.177 16.917 69.948v0c0 20.485-3.453 38.438-10.357 53.859-6.905 15.421-16.342 28.311-28.311 38.669-11.969 10.358-25.595 18.114-40.878 23.27-15.329 5.202-31.395 7.803-48.197 7.802v0zM164.616 235.807v0h29.346c28.08 0 50.637-9.161 67.67-27.482 17.032-18.275 25.549-46.632 25.548-85.07v0c0-23.477-3.268-43.571-9.805-60.281-6.583-16.664-17.286-29.438-32.108-38.323-14.869-8.838-34.847-13.258-59.936-13.258v0h-43.502v184.365c0 6.675 0.46 13.05 1.381 19.126 0.921 6.122 2.992 11.14 6.215 15.053 3.222 3.913 8.286 5.869 15.191 5.87z" fill="black" fill-rule="nonzero" stroke="none" stroke-width="1" stroke-linecap="butt" stroke-linejoin="miter" stroke-miterlimit="10" stroke-dasharray="" stroke-dashoffset="0" font-family="none" font-weight="none" font-size="none" text-anchor="none" style="mix-blend-mode: normal"></path></g></g><g transform="matrix(1,0,0,1,0,48.64330458465729)"><svg viewBox="0 0 395.52 149.91339083068542" height="149.91339083068542" width="395.52"><g><svg viewBox="0 0 395.52 149.91339083068542" height="149.91339083068542" width="395.52"><g><svg viewBox="0 0 395.52 149.91339083068542" height="149.91339083068542" width="395.52"><g><svg viewBox="0 0 395.52 149.91339083068542" height="149.91339083068542" width="395.52"><g id="SvgjsG5920"><svg viewBox="0 0 395.52 149.91339083068542" height="149.91339083068542" width="395.52" id="SvgjsSvg5919"><g><svg viewBox="0 0 395.52 149.91339083068542" height="149.91339083068542" width="395.52"><g transform="matrix(1,0,0,1,0,0)"><svg width="395.52" viewBox="-1 -39.2 111.15 42.75" height="149.91339083068542" data-palette-color="url(#1e48f0ea-5568-4a0f-b651-a51fd1e96828)"><path d="M9.4 0L2 0.15 2-1.1 3-1.2Q4.75-1.4 5.68-1.73 6.6-2.05 6.98-3.13 7.35-4.2 7.35-6.65L7.35-6.65 7.35-28.85Q7.35-31.35 7-32.4 6.65-33.45 5.73-33.77 4.8-34.1 3.05-34.3L3.05-34.3 2.05-34.4 2.05-35.65 9.45-35.5 16.5-35.5Q23.25-35.5 27.93-33.7 32.6-31.9 35.05-28.03 37.5-24.15 37.5-17.9L37.5-17.9Q37.5-13.45 36-10.1 34.5-6.75 31.9-4.5 29.3-2.25 25.98-1.13 22.65 0 19 0L19 0 9.4 0ZM14.95-1.5L14.95-1.5 19.2-1.5Q25.3-1.5 29-5.48 32.7-9.45 32.7-17.8L32.7-17.8Q32.7-22.9 31.28-26.53 29.85-30.15 26.63-32.08 23.4-34 17.95-34L17.95-34 11.65-34 11.65-7.3Q11.65-5.85 11.85-4.53 12.05-3.2 12.75-2.35 13.45-1.5 14.95-1.5ZM48 0L40.6 0.15 40.6-1.1 41.6-1.2Q43.35-1.4 44.27-1.73 45.2-2.05 45.55-3.13 45.9-4.2 45.9-6.65L45.9-6.65 45.9-28.85Q45.9-31.35 45.55-32.4 45.2-33.45 44.27-33.77 43.35-34.1 41.6-34.3L41.6-34.3 40.6-34.4 40.6-35.65 48-35.5 54.65-35.65 54.65-34.35 53.65-34.25Q52.15-34.1 51.35-33.7 50.55-33.3 50.25-32.2 49.95-31.1 49.95-28.85L49.95-28.85 49.95-15.45 61.45-28.9Q62.5-30.15 62.97-31.05 63.45-31.95 63.45-32.6L63.45-32.6Q63.45-33.95 61.15-34.2L61.15-34.2 59.55-34.35 59.55-35.65 65.95-35.5 72-35.65 72-34.4 70.3-34.2Q68.8-34 67.47-33 66.15-32 64.7-30.3L64.7-30.3 56.9-21.1 66.5-8.55Q68.2-6.35 69.57-4.75 70.95-3.15 72.37-2.27 73.8-1.4 75.6-1.2L75.6-1.2 76.65-1.1 76.65 0.15 69.05 0 61.65 0.15 61.65-1.1 62.4-1.15Q64.8-1.3 64.8-2.6L64.8-2.6Q64.8-3.6 63.45-5.35L63.45-5.35 53.95-17.6 49.95-12.9 49.95-6.65Q49.95-4.2 50.27-3.13 50.6-2.05 51.45-1.73 52.3-1.4 53.9-1.2L53.9-1.2 54.8-1.1 54.8 0.15 48.05 0 48 0ZM94.15 0.55L94.15 0.55Q89.05 0.55 85.37-1.8 81.7-4.15 79.72-8.28 77.75-12.4 77.75-17.75L77.75-17.75Q77.75-21.75 79.05-25.1 80.35-28.45 82.65-30.95 84.95-33.45 87.97-34.83 91-36.2 94.45-36.2L94.45-36.2Q97.5-36.2 99.47-35.52 101.45-34.85 102.45-34.35L102.45-34.35Q103.1-34.05 103.65-33.83 104.2-33.6 104.4-33.6L104.4-33.6Q104.95-33.6 105.3-34.02 105.65-34.45 105.75-35.5L105.75-35.5 107-35.5 106.9-29.65 107-23.8 105.75-23.8Q105-29 102.15-31.85 99.3-34.7 94.6-34.7L94.6-34.7Q91.3-34.7 89.05-33.38 86.8-32.05 85.45-29.73 84.1-27.4 83.47-24.33 82.85-21.25 82.85-17.75L82.85-17.75Q82.85-12.5 83.97-8.75 85.1-5 87.67-2.98 90.25-0.95 94.6-0.95L94.6-0.95Q97.85-0.95 100.25-2.45 102.65-3.95 104.12-6.45 105.6-8.95 105.9-11.95L105.9-11.95 107.1-11.95 107-5.85 107.15 0 105.95 0 105.8-0.55Q105.6-1.2 105.32-1.78 105.05-2.35 104.4-2.35L104.4-2.35Q104.05-2.35 103.57-2.15 103.1-1.95 102.5-1.65L102.5-1.65Q101.2-1 99.1-0.23 97 0.55 94.15 0.55Z" opacity="1" transform="matrix(1,0,0,1,0,0)" fill="black" class="wordmark-text-0" id="SvgjsPath5918"></path></svg></g></svg></g></svg></g></svg></g><g></g></svg></g></svg></g></svg></g></svg></g><defs><mask></mask></defs></svg><rect width="395.52" height="247.2" fill="black" stroke="none" visibility="hidden"></rect></g></mask></svg><rect width="395.52" height="247.2" fill="black" stroke="none" visibility="hidden"></rect></g></mask><linearGradient x1="0" x2="1" y1="0.578" y2="0.595" id="4ffcdaae-7dd0-482c-84de-5fdf892c60d5"><stop stop-color="#6ee2f5" offset="0"></stop><stop stop-color="#6454f0" offset="1"></stop></linearGradient></svg><rect width="395.52" height="247.2" fill="none" stroke="none" visibility="hidden"></rect></g></svg></g></svg>